<svg xmlns="http://www.w3.org/2000/svg" width="64" height="64" viewBox="0 0 64 64"><g class="nc-icon-wrapper"><path class="st22" d="M54.667 28h-5.131a17.876 17.876 0 0 0-2.316-5.565l3.635-3.635a1.333 1.333 0 0 0 0-1.886l-3.772-3.772a1.333 1.333 0 0 0-1.886 0l-3.635 3.635a17.886 17.886 0 0 0-5.565-2.316V9.33c0-.737-.597-1.334-1.334-1.334H29.33c-.736 0-1.334.597-1.334 1.334v5.131a17.862 17.862 0 0 0-5.565 2.316l-3.635-3.635a1.333 1.333 0 0 0-1.886 0l-3.772 3.772a1.333 1.333 0 0 0 0 1.886l3.635 3.635A17.886 17.886 0 0 0 14.457 28h-5.13c-.736 0-1.333.597-1.333 1.333v5.334c0 .736.597 1.334 1.333 1.334h5.131a17.886 17.886 0 0 0 2.316 5.565l-3.635 3.635a1.333 1.333 0 0 0 0 1.886l3.772 3.772a1.333 1.333 0 0 0 1.886 0l3.635-3.635a17.886 17.886 0 0 0 5.565 2.316v5.131c0 .736.597 1.334 1.334 1.334h5.334c.737 0 1.334-.597 1.334-1.334V49.54a17.862 17.862 0 0 0 5.565-2.316l3.635 3.635a1.333 1.333 0 0 0 1.886 0l3.772-3.772a1.333 1.333 0 0 0 0-1.886l-3.635-3.635a17.91 17.91 0 0 0 2.316-5.565h5.131c.736 0 1.333-.597 1.333-1.334v-5.334A1.336 1.336 0 0 0 54.667 28zm-22.67 11.609a7.609 7.609 0 1 1 0-15.218 7.609 7.609 0 0 1 0 15.218z" fill-rule="evenodd" clip-rule="evenodd" fill="#D9DCE1"></path><path class="st0" d="M19.379 29l16.627.056c.138 0 .269.064.366.176l2.529 2.927a.66.66 0 0 1-.022.865L35.716 34h-.457l-1.435-.868L32.62 35h-1.964l-1.102-1.836L28.438 35h-1.264l-.913-1.57-.92 1.57-4.494-.013L19.379 29z" fill="#2f3260"></path><path class="st0" d="M21.537 31.654a7.07 7.07 0 1 0-14.138-.044 7.07 7.07 0 0 0 14.138.044zm-9.17 2.073a2.094 2.094 0 1 1 .013-4.189 2.094 2.094 0 1 1-.013 4.189z" fill="#2f3260"></path></g></svg>